<svg xmlns="http://www.w3.org/2000/svg" xmlns:xlink="http://www.w3.org/1999/xlink" width="150" zoomAndPan="magnify" viewBox="0 0 112.5 74.999997" height="100" preserveAspectRatio="xMidYMid meet" version="1.0"><defs><g/></defs><path stroke-linecap="round" transform="matrix(0.385333, 0, 0, 0.38514, 2.173238, 19.0223)" fill="none" stroke-linejoin="miter" d="M 0.50333 0.499931 L 280.364954 0.499931 " stroke="#000000" stroke-width="1" stroke-opacity="1" stroke-miterlimit="4"/><path stroke-linecap="round" transform="matrix(0.386694, 0, 0, 0.38514, 2.173238, 56.542701)" fill="none" stroke-linejoin="miter" d="M 0.501559 0.497674 L 69.223201 0.497674 " stroke="#000000" stroke-width="1" stroke-opacity="1" stroke-miterlimit="4"/><path stroke-linecap="round" transform="matrix(0.386694, 0, 0, 0.38514, 83.493102, 56.542701)" fill="none" stroke-linejoin="miter" d="M 0.502717 0.497674 L 69.22436 0.497674 " stroke="#000000" stroke-width="1" stroke-opacity="1" stroke-miterlimit="4"/><path stroke-linecap="round" transform="matrix(0.000000000000000024, -0.386496, 0.38514, 0.000000000000000024, 110.344049, 56.828872)" fill="none" stroke-linejoin="miter" d="M 0.497169 0.496201 L 97.169112 0.496201 " stroke="#000000" stroke-width="1" stroke-opacity="1" stroke-miterlimit="4"/><path stroke-linecap="round" transform="matrix(0.000000000000000024, -0.386496, 0.38514, 0.000000000000000024, 1.785417, 56.828872)" fill="none" stroke-linejoin="miter" d="M 0.497169 0.496302 L 97.169112 0.496302 " stroke="#000000" stroke-width="1" stroke-opacity="1" stroke-miterlimit="4"/><g fill="#f3ebcf" fill-opacity="1"><g transform="translate(21.255039, 59.505479)"><g><path d="M 27.625 -47.09375 L 29.109375 -47.3125 C 29.773438 -47.3125 30.140625 -46.769531 30.203125 -45.6875 C 30.273438 -44.613281 30.367188 -43.734375 30.484375 -43.046875 C 30.609375 -42.359375 30.726562 -41.738281 30.84375 -41.1875 C 30.96875 -40.644531 31.070312 -40.179688 31.15625 -39.796875 C 31.238281 -39.421875 31.28125 -39.109375 31.28125 -38.859375 C 31.28125 -38.617188 31.144531 -38.382812 30.875 -38.15625 C 30.601562 -37.925781 30.3125 -37.8125 30 -37.8125 C 29.457031 -37.8125 28.925781 -38.394531 28.40625 -39.5625 C 27.40625 -41.769531 26.570312 -43.191406 25.90625 -43.828125 C 24.375 -45.203125 22.113281 -45.890625 19.125 -45.890625 C 14.957031 -45.890625 12.160156 -44.644531 10.734375 -42.15625 C 10.285156 -41.351562 10.0625 -40.367188 10.0625 -39.203125 C 10.0625 -38.046875 10.335938 -36.957031 10.890625 -35.9375 C 11.453125 -34.914062 12.304688 -33.890625 13.453125 -32.859375 C 14.597656 -31.828125 16.0625 -30.71875 17.84375 -29.53125 C 19.625 -28.351562 21.53125 -27.0625 23.5625 -25.65625 C 25.601562 -24.257812 27.191406 -23 28.328125 -21.875 C 29.460938 -20.75 30.390625 -19.628906 31.109375 -18.515625 C 32.453125 -16.410156 33.125 -14.363281 33.125 -12.375 C 33.125 -10.382812 32.835938 -8.613281 32.265625 -7.0625 C 31.703125 -5.507812 30.78125 -4.148438 29.5 -2.984375 C 26.726562 -0.398438 22.628906 0.890625 17.203125 0.890625 C 14.453125 0.890625 11.421875 0.285156 8.109375 -0.921875 C 7.347656 -1.179688 6.875 -1.476562 6.6875 -1.8125 C 6.46875 -2.21875 6.273438 -2.976562 6.109375 -4.09375 C 5.941406 -5.207031 5.742188 -6.210938 5.515625 -7.109375 C 5.296875 -8.003906 5.09375 -8.8125 4.90625 -9.53125 L 4.40625 -11.375 C 4.257812 -11.914062 4.1875 -12.363281 4.1875 -12.71875 C 4.1875 -13.570312 4.507812 -14 5.15625 -14 C 6.007812 -14 6.625 -13.347656 7 -12.046875 C 7.664062 -9.722656 8.257812 -8.21875 8.78125 -7.53125 C 10.789062 -4.875 13.125 -3.144531 15.78125 -2.34375 C 16.5625 -2.101562 17.609375 -1.984375 18.921875 -1.984375 C 20.242188 -1.984375 21.535156 -2.175781 22.796875 -2.5625 C 24.066406 -2.957031 25.117188 -3.488281 25.953125 -4.15625 C 27.515625 -5.4375 28.296875 -6.992188 28.296875 -8.828125 C 28.296875 -10.671875 27.707031 -12.332031 26.53125 -13.8125 C 25.363281 -15.289062 23.953125 -16.582031 22.296875 -17.6875 C 20.648438 -18.789062 19.414062 -19.601562 18.59375 -20.125 C 17.78125 -20.644531 17.019531 -21.140625 16.3125 -21.609375 C 10.320312 -25.617188 6.78125 -29.601562 5.6875 -33.5625 C 5.40625 -34.601562 5.265625 -35.796875 5.265625 -37.140625 C 5.265625 -38.492188 5.59375 -39.878906 6.25 -41.296875 C 6.914062 -42.722656 7.863281 -43.96875 9.09375 -45.03125 C 11.820312 -47.351562 15.34375 -48.515625 19.65625 -48.515625 C 21.625 -48.515625 23.203125 -48.316406 24.390625 -47.921875 C 26.046875 -47.367188 27.125 -47.09375 27.625 -47.09375 Z M 27.625 -47.09375 "/></g></g></g><g fill="#f3ebcf" fill-opacity="1"><g transform="translate(59.948491, 59.505479)"><g><path d="M 4.734375 0.53125 C 3.191406 0.53125 2.421875 0.09375 2.421875 -0.78125 C 2.421875 -1.46875 2.847656 -1.8125 3.703125 -1.8125 L 5.4375 -1.640625 C 6.863281 -1.640625 7.820312 -2.429688 8.3125 -4.015625 C 8.71875 -5.367188 8.921875 -7.785156 8.921875 -11.265625 L 8.921875 -36.359375 C 8.921875 -39.847656 8.753906 -42.128906 8.421875 -43.203125 C 8.085938 -44.285156 7.691406 -45.019531 7.234375 -45.40625 C 6.773438 -45.800781 6.175781 -46 5.4375 -46 L 3.703125 -45.859375 C 2.847656 -45.859375 2.421875 -46.203125 2.421875 -46.890625 C 2.421875 -47.765625 3.070312 -48.203125 4.375 -48.203125 C 5.675781 -48.203125 6.910156 -48.101562 8.078125 -47.90625 C 9.253906 -47.71875 10.554688 -47.625 11.984375 -47.625 C 13.421875 -47.625 14.691406 -47.71875 15.796875 -47.90625 C 16.898438 -48.101562 17.867188 -48.203125 18.703125 -48.203125 C 23.765625 -48.203125 27.863281 -46.660156 31 -43.578125 C 33.84375 -40.753906 35.265625 -37.351562 35.265625 -33.375 C 35.265625 -29.707031 33.84375 -26.507812 31 -23.78125 C 28.195312 -21.125 24.992188 -19.796875 21.390625 -19.796875 C 18.617188 -19.796875 16.726562 -20.34375 15.71875 -21.4375 C 15.40625 -21.769531 15.25 -22.128906 15.25 -22.515625 C 15.25 -22.910156 15.359375 -23.207031 15.578125 -23.40625 C 15.804688 -23.601562 16.085938 -23.703125 16.421875 -23.703125 C 16.753906 -23.703125 17.21875 -23.476562 17.8125 -23.03125 C 18.726562 -22.363281 19.875 -22.03125 21.25 -22.03125 C 22.625 -22.03125 23.789062 -22.296875 24.75 -22.828125 C 25.71875 -23.367188 26.53125 -24.125 27.1875 -25.09375 C 28.5625 -27.101562 29.25 -29.816406 29.25 -33.234375 C 29.25 -37.078125 28.1875 -40.132812 26.0625 -42.40625 C 24 -44.613281 21.316406 -45.71875 18.015625 -45.71875 C 16.804688 -45.71875 15.914062 -45.550781 15.34375 -45.21875 C 14.78125 -44.882812 14.5 -44.3125 14.5 -43.5 L 14.5 -11.265625 C 14.5 -7.691406 14.660156 -5.390625 14.984375 -4.359375 C 15.304688 -3.328125 15.695312 -2.613281 16.15625 -2.21875 C 16.613281 -1.832031 17.222656 -1.640625 17.984375 -1.640625 L 19.6875 -1.8125 C 20.539062 -1.8125 20.96875 -1.46875 20.96875 -0.78125 C 20.96875 0.09375 20.210938 0.53125 18.703125 0.53125 C 17.921875 0.53125 17.085938 0.457031 16.203125 0.3125 C 13.359375 -0.132812 10.921875 -0.210938 8.890625 0.078125 C 6.867188 0.378906 5.484375 0.53125 4.734375 0.53125 Z M 4.734375 0.53125 "/></g></g></g><g fill="#4d4d4d" fill-opacity="1"><g transform="translate(57.010121, 51.367445)"><g><path d="M 1.796875 -2.625 C 1.535156 -2.488281 1.335938 -2.320312 1.203125 -2.125 C 1.066406 -1.925781 1 -1.707031 1 -1.46875 C 1 -1.3125 1.03125 -1.171875 1.09375 -1.046875 C 1.15625 -0.921875 1.234375 -0.816406 1.328125 -0.734375 C 1.421875 -0.648438 1.53125 -0.585938 1.65625 -0.546875 C 1.78125 -0.503906 1.90625 -0.484375 2.03125 -0.484375 C 2.3125 -0.484375 2.5625 -0.53125 2.78125 -0.625 C 3.007812 -0.726562 3.207031 -0.867188 3.375 -1.046875 Z M 5.234375 0 L 4.59375 0 C 4.519531 0 4.457031 -0.00390625 4.40625 -0.015625 C 4.363281 -0.0351562 4.316406 -0.078125 4.265625 -0.140625 L 3.734375 -0.671875 C 3.492188 -0.453125 3.222656 -0.273438 2.921875 -0.140625 C 2.617188 -0.00390625 2.285156 0.0625 1.921875 0.0625 C 1.722656 0.0625 1.53125 0.03125 1.34375 -0.03125 C 1.15625 -0.101562 0.984375 -0.203125 0.828125 -0.328125 C 0.679688 -0.460938 0.5625 -0.617188 0.46875 -0.796875 C 0.375 -0.984375 0.328125 -1.191406 0.328125 -1.421875 C 0.328125 -1.597656 0.351562 -1.757812 0.40625 -1.90625 C 0.46875 -2.0625 0.550781 -2.207031 0.65625 -2.34375 C 0.757812 -2.476562 0.878906 -2.597656 1.015625 -2.703125 C 1.160156 -2.804688 1.316406 -2.894531 1.484375 -2.96875 C 1.335938 -3.15625 1.226562 -3.335938 1.15625 -3.515625 C 1.082031 -3.703125 1.046875 -3.890625 1.046875 -4.078125 C 1.046875 -4.265625 1.078125 -4.4375 1.140625 -4.59375 C 1.210938 -4.75 1.3125 -4.882812 1.4375 -5 C 1.5625 -5.125 1.710938 -5.21875 1.890625 -5.28125 C 2.066406 -5.351562 2.265625 -5.390625 2.484375 -5.390625 C 2.679688 -5.390625 2.859375 -5.359375 3.015625 -5.296875 C 3.171875 -5.234375 3.304688 -5.148438 3.421875 -5.046875 C 3.546875 -4.941406 3.640625 -4.816406 3.703125 -4.671875 C 3.773438 -4.535156 3.816406 -4.394531 3.828125 -4.25 L 3.40625 -4.171875 C 3.332031 -4.148438 3.273438 -4.1875 3.234375 -4.28125 C 3.210938 -4.34375 3.179688 -4.410156 3.140625 -4.484375 C 3.109375 -4.554688 3.0625 -4.617188 3 -4.671875 C 2.9375 -4.734375 2.863281 -4.78125 2.78125 -4.8125 C 2.695312 -4.851562 2.597656 -4.875 2.484375 -4.875 C 2.359375 -4.875 2.242188 -4.851562 2.140625 -4.8125 C 2.046875 -4.769531 1.960938 -4.710938 1.890625 -4.640625 C 1.816406 -4.578125 1.757812 -4.492188 1.71875 -4.390625 C 1.6875 -4.296875 1.671875 -4.195312 1.671875 -4.09375 C 1.671875 -4 1.679688 -3.910156 1.703125 -3.828125 C 1.722656 -3.753906 1.753906 -3.675781 1.796875 -3.59375 C 1.835938 -3.507812 1.890625 -3.425781 1.953125 -3.34375 C 2.023438 -3.257812 2.109375 -3.171875 2.203125 -3.078125 L 3.734375 -1.515625 C 3.828125 -1.691406 3.898438 -1.867188 3.953125 -2.046875 C 4.015625 -2.234375 4.054688 -2.414062 4.078125 -2.59375 C 4.078125 -2.632812 4.085938 -2.671875 4.109375 -2.703125 C 4.140625 -2.734375 4.175781 -2.75 4.21875 -2.75 L 4.625 -2.75 C 4.625 -2.457031 4.578125 -2.175781 4.484375 -1.90625 C 4.398438 -1.632812 4.273438 -1.378906 4.109375 -1.140625 Z M 5.234375 0 "/></g></g></g><g fill="#4d4d4d" fill-opacity="1"><g transform="translate(32.588845, 58.369247)"><g><path d="M 1.890625 -3.515625 C 2.335938 -3.515625 2.6875 -3.40625 2.9375 -3.1875 C 3.195312 -2.976562 3.328125 -2.6875 3.328125 -2.3125 C 3.328125 -1.9375 3.195312 -1.640625 2.9375 -1.421875 C 2.6875 -1.210938 2.335938 -1.109375 1.890625 -1.109375 L 0.9375 -1.109375 L 0.9375 0 L 0.578125 0 L 0.578125 -3.515625 Z M 1.875 -1.4375 C 2.21875 -1.4375 2.484375 -1.507812 2.671875 -1.65625 C 2.859375 -1.8125 2.953125 -2.03125 2.953125 -2.3125 C 2.953125 -2.59375 2.859375 -2.804688 2.671875 -2.953125 C 2.484375 -3.109375 2.21875 -3.1875 1.875 -3.1875 L 0.9375 -3.1875 L 0.9375 -1.4375 Z M 1.875 -1.4375 "/></g></g></g><g fill="#4d4d4d" fill-opacity="1"><g transform="translate(37.092269, 58.369247)"><g><path d="M 2.96875 0 L 2.171875 -1.125 C 2.078125 -1.113281 1.984375 -1.109375 1.890625 -1.109375 L 0.9375 -1.109375 L 0.9375 0 L 0.578125 0 L 0.578125 -3.515625 L 1.890625 -3.515625 C 2.335938 -3.515625 2.6875 -3.40625 2.9375 -3.1875 C 3.195312 -2.976562 3.328125 -2.6875 3.328125 -2.3125 C 3.328125 -2.03125 3.253906 -1.796875 3.109375 -1.609375 C 2.972656 -1.421875 2.773438 -1.285156 2.515625 -1.203125 L 3.375 0 Z M 1.875 -1.421875 C 2.21875 -1.421875 2.484375 -1.5 2.671875 -1.65625 C 2.859375 -1.8125 2.953125 -2.03125 2.953125 -2.3125 C 2.953125 -2.59375 2.859375 -2.804688 2.671875 -2.953125 C 2.484375 -3.109375 2.21875 -3.1875 1.875 -3.1875 L 0.9375 -3.1875 L 0.9375 -1.421875 Z M 1.875 -1.421875 "/></g></g></g><g fill="#4d4d4d" fill-opacity="1"><g transform="translate(41.620794, 58.369247)"><g><path d="M 2.109375 0.03125 C 1.753906 0.03125 1.4375 -0.046875 1.15625 -0.203125 C 0.875 -0.359375 0.65625 -0.570312 0.5 -0.84375 C 0.34375 -1.113281 0.265625 -1.414062 0.265625 -1.75 C 0.265625 -2.09375 0.34375 -2.398438 0.5 -2.671875 C 0.65625 -2.941406 0.875 -3.15625 1.15625 -3.3125 C 1.4375 -3.46875 1.753906 -3.546875 2.109375 -3.546875 C 2.453125 -3.546875 2.765625 -3.46875 3.046875 -3.3125 C 3.328125 -3.15625 3.546875 -2.941406 3.703125 -2.671875 C 3.867188 -2.398438 3.953125 -2.09375 3.953125 -1.75 C 3.953125 -1.414062 3.867188 -1.113281 3.703125 -0.84375 C 3.546875 -0.570312 3.328125 -0.359375 3.046875 -0.203125 C 2.765625 -0.046875 2.453125 0.03125 2.109375 0.03125 Z M 2.109375 -0.296875 C 2.378906 -0.296875 2.625 -0.359375 2.84375 -0.484375 C 3.070312 -0.609375 3.25 -0.78125 3.375 -1 C 3.507812 -1.226562 3.578125 -1.476562 3.578125 -1.75 C 3.578125 -2.03125 3.507812 -2.28125 3.375 -2.5 C 3.25 -2.71875 3.070312 -2.890625 2.84375 -3.015625 C 2.625 -3.140625 2.378906 -3.203125 2.109375 -3.203125 C 1.828125 -3.203125 1.570312 -3.140625 1.34375 -3.015625 C 1.125 -2.890625 0.945312 -2.71875 0.8125 -2.5 C 0.6875 -2.28125 0.625 -2.03125 0.625 -1.75 C 0.625 -1.476562 0.6875 -1.226562 0.8125 -1 C 0.945312 -0.78125 1.125 -0.609375 1.34375 -0.484375 C 1.570312 -0.359375 1.828125 -0.296875 2.109375 -0.296875 Z M 2.109375 -0.296875 "/></g></g></g><g fill="#4d4d4d" fill-opacity="1"><g transform="translate(46.731705, 58.369247)"><g><path d="M 0.9375 -3.1875 L 0.9375 -1.8125 L 2.765625 -1.8125 L 2.765625 -1.484375 L 0.9375 -1.484375 L 0.9375 0 L 0.578125 0 L 0.578125 -3.515625 L 2.984375 -3.515625 L 2.984375 -3.1875 Z M 0.9375 -3.1875 "/></g></g></g><g fill="#4d4d4d" fill-opacity="1"><g transform="translate(50.808382, 58.369247)"><g><path d="M 3.046875 -0.328125 L 3.046875 0 L 0.578125 0 L 0.578125 -3.515625 L 2.984375 -3.515625 L 2.984375 -3.1875 L 0.9375 -3.1875 L 0.9375 -1.9375 L 2.765625 -1.9375 L 2.765625 -1.625 L 0.9375 -1.625 L 0.9375 -0.328125 Z M 3.046875 -0.328125 "/></g></g></g><g fill="#4d4d4d" fill-opacity="1"><g transform="translate(55.065802, 58.369247)"><g><path d="M 1.546875 0.03125 C 1.285156 0.03125 1.035156 -0.0078125 0.796875 -0.09375 C 0.554688 -0.175781 0.367188 -0.285156 0.234375 -0.421875 L 0.375 -0.71875 C 0.507812 -0.582031 0.679688 -0.472656 0.890625 -0.390625 C 1.097656 -0.316406 1.316406 -0.28125 1.546875 -0.28125 C 1.859375 -0.28125 2.09375 -0.335938 2.25 -0.453125 C 2.40625 -0.566406 2.484375 -0.71875 2.484375 -0.90625 C 2.484375 -1.050781 2.441406 -1.164062 2.359375 -1.25 C 2.273438 -1.332031 2.171875 -1.394531 2.046875 -1.4375 C 1.921875 -1.476562 1.75 -1.523438 1.53125 -1.578125 C 1.257812 -1.648438 1.046875 -1.71875 0.890625 -1.78125 C 0.734375 -1.84375 0.597656 -1.9375 0.484375 -2.0625 C 0.378906 -2.1875 0.328125 -2.359375 0.328125 -2.578125 C 0.328125 -2.753906 0.375 -2.914062 0.46875 -3.0625 C 0.5625 -3.207031 0.703125 -3.320312 0.890625 -3.40625 C 1.085938 -3.5 1.328125 -3.546875 1.609375 -3.546875 C 1.816406 -3.546875 2.015625 -3.515625 2.203125 -3.453125 C 2.398438 -3.398438 2.566406 -3.328125 2.703125 -3.234375 L 2.578125 -2.9375 C 2.429688 -3.03125 2.273438 -3.097656 2.109375 -3.140625 C 1.941406 -3.191406 1.773438 -3.21875 1.609375 -3.21875 C 1.304688 -3.21875 1.078125 -3.160156 0.921875 -3.046875 C 0.765625 -2.929688 0.6875 -2.78125 0.6875 -2.59375 C 0.6875 -2.445312 0.726562 -2.332031 0.8125 -2.25 C 0.894531 -2.164062 1 -2.097656 1.125 -2.046875 C 1.257812 -2.003906 1.4375 -1.957031 1.65625 -1.90625 C 1.914062 -1.84375 2.125 -1.78125 2.28125 -1.71875 C 2.4375 -1.65625 2.566406 -1.5625 2.671875 -1.4375 C 2.785156 -1.3125 2.84375 -1.140625 2.84375 -0.921875 C 2.84375 -0.742188 2.796875 -0.582031 2.703125 -0.4375 C 2.609375 -0.289062 2.460938 -0.175781 2.265625 -0.09375 C 2.066406 -0.0078125 1.828125 0.03125 1.546875 0.03125 Z M 1.546875 0.03125 "/></g></g></g><g fill="#4d4d4d" fill-opacity="1"><g transform="translate(59.052109, 58.369247)"><g><path d="M 1.546875 0.03125 C 1.285156 0.03125 1.035156 -0.0078125 0.796875 -0.09375 C 0.554688 -0.175781 0.367188 -0.285156 0.234375 -0.421875 L 0.375 -0.71875 C 0.507812 -0.582031 0.679688 -0.472656 0.890625 -0.390625 C 1.097656 -0.316406 1.316406 -0.28125 1.546875 -0.28125 C 1.859375 -0.28125 2.09375 -0.335938 2.25 -0.453125 C 2.40625 -0.566406 2.484375 -0.71875 2.484375 -0.90625 C 2.484375 -1.050781 2.441406 -1.164062 2.359375 -1.25 C 2.273438 -1.332031 2.171875 -1.394531 2.046875 -1.4375 C 1.921875 -1.476562 1.75 -1.523438 1.53125 -1.578125 C 1.257812 -1.648438 1.046875 -1.71875 0.890625 -1.78125 C 0.734375 -1.84375 0.597656 -1.9375 0.484375 -2.0625 C 0.378906 -2.1875 0.328125 -2.359375 0.328125 -2.578125 C 0.328125 -2.753906 0.375 -2.914062 0.46875 -3.0625 C 0.5625 -3.207031 0.703125 -3.320312 0.890625 -3.40625 C 1.085938 -3.5 1.328125 -3.546875 1.609375 -3.546875 C 1.816406 -3.546875 2.015625 -3.515625 2.203125 -3.453125 C 2.398438 -3.398438 2.566406 -3.328125 2.703125 -3.234375 L 2.578125 -2.9375 C 2.429688 -3.03125 2.273438 -3.097656 2.109375 -3.140625 C 1.941406 -3.191406 1.773438 -3.21875 1.609375 -3.21875 C 1.304688 -3.21875 1.078125 -3.160156 0.921875 -3.046875 C 0.765625 -2.929688 0.6875 -2.78125 0.6875 -2.59375 C 0.6875 -2.445312 0.726562 -2.332031 0.8125 -2.25 C 0.894531 -2.164062 1 -2.097656 1.125 -2.046875 C 1.257812 -2.003906 1.4375 -1.957031 1.65625 -1.90625 C 1.914062 -1.84375 2.125 -1.78125 2.28125 -1.71875 C 2.4375 -1.65625 2.566406 -1.5625 2.671875 -1.4375 C 2.785156 -1.3125 2.84375 -1.140625 2.84375 -0.921875 C 2.84375 -0.742188 2.796875 -0.582031 2.703125 -0.4375 C 2.609375 -0.289062 2.460938 -0.175781 2.265625 -0.09375 C 2.066406 -0.0078125 1.828125 0.03125 1.546875 0.03125 Z M 1.546875 0.03125 "/></g></g></g><g fill="#4d4d4d" fill-opacity="1"><g transform="translate(63.038416, 58.369247)"><g><path d="M 0.578125 -3.515625 L 0.9375 -3.515625 L 0.9375 0 L 0.578125 0 Z M 0.578125 -3.515625 "/></g></g></g><g fill="#4d4d4d" fill-opacity="1"><g transform="translate(65.453293, 58.369247)"><g><path d="M 2.109375 0.03125 C 1.753906 0.03125 1.4375 -0.046875 1.15625 -0.203125 C 0.875 -0.359375 0.65625 -0.570312 0.5 -0.84375 C 0.34375 -1.113281 0.265625 -1.414062 0.265625 -1.75 C 0.265625 -2.09375 0.34375 -2.398438 0.5 -2.671875 C 0.65625 -2.941406 0.875 -3.15625 1.15625 -3.3125 C 1.4375 -3.46875 1.753906 -3.546875 2.109375 -3.546875 C 2.453125 -3.546875 2.765625 -3.46875 3.046875 -3.3125 C 3.328125 -3.15625 3.546875 -2.941406 3.703125 -2.671875 C 3.867188 -2.398438 3.953125 -2.09375 3.953125 -1.75 C 3.953125 -1.414062 3.867188 -1.113281 3.703125 -0.84375 C 3.546875 -0.570312 3.328125 -0.359375 3.046875 -0.203125 C 2.765625 -0.046875 2.453125 0.03125 2.109375 0.03125 Z M 2.109375 -0.296875 C 2.378906 -0.296875 2.625 -0.359375 2.84375 -0.484375 C 3.070312 -0.609375 3.25 -0.78125 3.375 -1 C 3.507812 -1.226562 3.578125 -1.476562 3.578125 -1.75 C 3.578125 -2.03125 3.507812 -2.28125 3.375 -2.5 C 3.25 -2.71875 3.070312 -2.890625 2.84375 -3.015625 C 2.625 -3.140625 2.378906 -3.203125 2.109375 -3.203125 C 1.828125 -3.203125 1.570312 -3.140625 1.34375 -3.015625 C 1.125 -2.890625 0.945312 -2.71875 0.8125 -2.5 C 0.6875 -2.28125 0.625 -2.03125 0.625 -1.75 C 0.625 -1.476562 0.6875 -1.226562 0.8125 -1 C 0.945312 -0.78125 1.125 -0.609375 1.34375 -0.484375 C 1.570312 -0.359375 1.828125 -0.296875 2.109375 -0.296875 Z M 2.109375 -0.296875 "/></g></g></g><g fill="#4d4d4d" fill-opacity="1"><g transform="translate(70.564205, 58.369247)"><g><path d="M 3.5 -3.515625 L 3.5 0 L 3.203125 0 L 0.9375 -2.84375 L 0.9375 0 L 0.578125 0 L 0.578125 -3.515625 L 0.875 -3.515625 L 3.140625 -0.65625 L 3.140625 -3.515625 Z M 3.5 -3.515625 "/></g></g></g><g fill="#4d4d4d" fill-opacity="1"><g transform="translate(75.544584, 58.369247)"><g><path d="M 2.78125 -0.9375 L 0.8125 -0.9375 L 0.390625 0 L 0.015625 0 L 1.609375 -3.515625 L 1.984375 -3.515625 L 3.59375 0 L 3.1875 0 Z M 2.640625 -1.234375 L 1.796875 -3.125 L 0.953125 -1.234375 Z M 2.640625 -1.234375 "/></g></g></g><g fill="#4d4d4d" fill-opacity="1"><g transform="translate(80.042991, 58.369247)"><g><path d="M 0.578125 -3.515625 L 0.9375 -3.515625 L 0.9375 -0.328125 L 2.90625 -0.328125 L 2.90625 0 L 0.578125 0 Z M 0.578125 -3.515625 "/></g></g></g><g fill="#4d4d4d" fill-opacity="1"><g transform="translate(33.177187, 65.063263)"><g><path d="M 0.578125 -3.515625 L 2 -3.515625 C 2.375 -3.515625 2.703125 -3.4375 2.984375 -3.28125 C 3.265625 -3.132812 3.484375 -2.925781 3.640625 -2.65625 C 3.796875 -2.394531 3.875 -2.09375 3.875 -1.75 C 3.875 -1.414062 3.796875 -1.113281 3.640625 -0.84375 C 3.484375 -0.582031 3.265625 -0.375 2.984375 -0.21875 C 2.703125 -0.0703125 2.375 0 2 0 L 0.578125 0 Z M 1.984375 -0.328125 C 2.285156 -0.328125 2.550781 -0.382812 2.78125 -0.5 C 3.019531 -0.625 3.203125 -0.789062 3.328125 -1 C 3.453125 -1.21875 3.515625 -1.46875 3.515625 -1.75 C 3.515625 -2.03125 3.453125 -2.28125 3.328125 -2.5 C 3.203125 -2.71875 3.019531 -2.882812 2.78125 -3 C 2.550781 -3.125 2.285156 -3.1875 1.984375 -3.1875 L 0.9375 -3.1875 L 0.9375 -0.328125 Z M 1.984375 -0.328125 "/></g></g></g><g fill="#4d4d4d" fill-opacity="1"><g transform="translate(38.222828, 65.063263)"><g><path d="M 3.046875 -0.328125 L 3.046875 0 L 0.578125 0 L 0.578125 -3.515625 L 2.984375 -3.515625 L 2.984375 -3.1875 L 0.9375 -3.1875 L 0.9375 -1.9375 L 2.765625 -1.9375 L 2.765625 -1.625 L 0.9375 -1.625 L 0.9375 -0.328125 Z M 3.046875 -0.328125 "/></g></g></g><g fill="#4d4d4d" fill-opacity="1"><g transform="translate(42.480247, 65.063263)"><g><path d="M 3.484375 -3.515625 L 1.9375 0 L 1.5625 0 L 0.015625 -3.515625 L 0.421875 -3.515625 L 1.765625 -0.46875 L 3.109375 -3.515625 Z M 3.484375 -3.515625 "/></g></g></g><g fill="#4d4d4d" fill-opacity="1"><g transform="translate(46.883259, 65.063263)"><g><path d="M 3.046875 -0.328125 L 3.046875 0 L 0.578125 0 L 0.578125 -3.515625 L 2.984375 -3.515625 L 2.984375 -3.1875 L 0.9375 -3.1875 L 0.9375 -1.9375 L 2.765625 -1.9375 L 2.765625 -1.625 L 0.9375 -1.625 L 0.9375 -0.328125 Z M 3.046875 -0.328125 "/></g></g></g><g fill="#4d4d4d" fill-opacity="1"><g transform="translate(51.140678, 65.063263)"><g><path d="M 0.578125 -3.515625 L 0.9375 -3.515625 L 0.9375 -0.328125 L 2.90625 -0.328125 L 2.90625 0 L 0.578125 0 Z M 0.578125 -3.515625 "/></g></g></g><g fill="#4d4d4d" fill-opacity="1"><g transform="translate(54.996453, 65.063263)"><g><path d="M 2.109375 0.03125 C 1.753906 0.03125 1.4375 -0.046875 1.15625 -0.203125 C 0.875 -0.359375 0.65625 -0.570312 0.5 -0.84375 C 0.34375 -1.113281 0.265625 -1.414062 0.265625 -1.75 C 0.265625 -2.09375 0.34375 -2.398438 0.5 -2.671875 C 0.65625 -2.941406 0.875 -3.15625 1.15625 -3.3125 C 1.4375 -3.46875 1.753906 -3.546875 2.109375 -3.546875 C 2.453125 -3.546875 2.765625 -3.46875 3.046875 -3.3125 C 3.328125 -3.15625 3.546875 -2.941406 3.703125 -2.671875 C 3.867188 -2.398438 3.953125 -2.09375 3.953125 -1.75 C 3.953125 -1.414062 3.867188 -1.113281 3.703125 -0.84375 C 3.546875 -0.570312 3.328125 -0.359375 3.046875 -0.203125 C 2.765625 -0.046875 2.453125 0.03125 2.109375 0.03125 Z M 2.109375 -0.296875 C 2.378906 -0.296875 2.625 -0.359375 2.84375 -0.484375 C 3.070312 -0.609375 3.25 -0.78125 3.375 -1 C 3.507812 -1.226562 3.578125 -1.476562 3.578125 -1.75 C 3.578125 -2.03125 3.507812 -2.28125 3.375 -2.5 C 3.25 -2.71875 3.070312 -2.890625 2.84375 -3.015625 C 2.625 -3.140625 2.378906 -3.203125 2.109375 -3.203125 C 1.828125 -3.203125 1.570312 -3.140625 1.34375 -3.015625 C 1.125 -2.890625 0.945312 -2.71875 0.8125 -2.5 C 0.6875 -2.28125 0.625 -2.03125 0.625 -1.75 C 0.625 -1.476562 0.6875 -1.226562 0.8125 -1 C 0.945312 -0.78125 1.125 -0.609375 1.34375 -0.484375 C 1.570312 -0.359375 1.828125 -0.296875 2.109375 -0.296875 Z M 2.109375 -0.296875 "/></g></g></g><g fill="#4d4d4d" fill-opacity="1"><g transform="translate(60.107365, 65.063263)"><g><path d="M 1.890625 -3.515625 C 2.335938 -3.515625 2.6875 -3.40625 2.9375 -3.1875 C 3.195312 -2.976562 3.328125 -2.6875 3.328125 -2.3125 C 3.328125 -1.9375 3.195312 -1.640625 2.9375 -1.421875 C 2.6875 -1.210938 2.335938 -1.109375 1.890625 -1.109375 L 0.9375 -1.109375 L 0.9375 0 L 0.578125 0 L 0.578125 -3.515625 Z M 1.875 -1.4375 C 2.21875 -1.4375 2.484375 -1.507812 2.671875 -1.65625 C 2.859375 -1.8125 2.953125 -2.03125 2.953125 -2.3125 C 2.953125 -2.59375 2.859375 -2.804688 2.671875 -2.953125 C 2.484375 -3.109375 2.21875 -3.1875 1.875 -3.1875 L 0.9375 -3.1875 L 0.9375 -1.4375 Z M 1.875 -1.4375 "/></g></g></g><g fill="#4d4d4d" fill-opacity="1"><g transform="translate(64.610789, 65.063263)"><g><path d="M 4.21875 -3.515625 L 4.21875 0 L 3.859375 0 L 3.859375 -2.8125 L 2.484375 -0.453125 L 2.3125 -0.453125 L 0.921875 -2.796875 L 0.921875 0 L 0.578125 0 L 0.578125 -3.515625 L 0.875 -3.515625 L 2.40625 -0.90625 L 3.90625 -3.515625 Z M 4.21875 -3.515625 "/></g></g></g><g fill="#4d4d4d" fill-opacity="1"><g transform="translate(70.304086, 65.063263)"><g><path d="M 3.046875 -0.328125 L 3.046875 0 L 0.578125 0 L 0.578125 -3.515625 L 2.984375 -3.515625 L 2.984375 -3.1875 L 0.9375 -3.1875 L 0.9375 -1.9375 L 2.765625 -1.9375 L 2.765625 -1.625 L 0.9375 -1.625 L 0.9375 -0.328125 Z M 3.046875 -0.328125 "/></g></g></g><g fill="#4d4d4d" fill-opacity="1"><g transform="translate(74.561506, 65.063263)"><g><path d="M 3.5 -3.515625 L 3.5 0 L 3.203125 0 L 0.9375 -2.84375 L 0.9375 0 L 0.578125 0 L 0.578125 -3.515625 L 0.875 -3.515625 L 3.140625 -0.65625 L 3.140625 -3.515625 Z M 3.5 -3.515625 "/></g></g></g><g fill="#4d4d4d" fill-opacity="1"><g transform="translate(79.541886, 65.063263)"><g><path d="M 1.25 -3.1875 L 0.015625 -3.1875 L 0.015625 -3.515625 L 2.859375 -3.515625 L 2.859375 -3.1875 L 1.625 -3.1875 L 1.625 0 L 1.25 0 Z M 1.25 -3.1875 "/></g></g></g><g fill="#4d4d4d" fill-opacity="1"><g transform="translate(5.353882, 40.303084)"><g><path d="M 4.25 0.0625 C 3.539062 0.0625 2.90625 -0.09375 2.34375 -0.40625 C 1.78125 -0.71875 1.335938 -1.148438 1.015625 -1.703125 C 0.691406 -2.253906 0.53125 -2.867188 0.53125 -3.546875 C 0.53125 -4.234375 0.691406 -4.851562 1.015625 -5.40625 C 1.335938 -5.957031 1.78125 -6.390625 2.34375 -6.703125 C 2.914062 -7.015625 3.550781 -7.171875 4.25 -7.171875 C 4.78125 -7.171875 5.269531 -7.082031 5.71875 -6.90625 C 6.164062 -6.726562 6.546875 -6.472656 6.859375 -6.140625 L 6.375 -5.65625 C 5.820312 -6.21875 5.125 -6.5 4.28125 -6.5 C 3.71875 -6.5 3.203125 -6.367188 2.734375 -6.109375 C 2.273438 -5.859375 1.914062 -5.507812 1.65625 -5.0625 C 1.394531 -4.613281 1.265625 -4.109375 1.265625 -3.546875 C 1.265625 -2.992188 1.394531 -2.492188 1.65625 -2.046875 C 1.914062 -1.597656 2.273438 -1.242188 2.734375 -0.984375 C 3.203125 -0.734375 3.71875 -0.609375 4.28125 -0.609375 C 5.132812 -0.609375 5.832031 -0.894531 6.375 -1.46875 L 6.859375 -0.984375 C 6.546875 -0.648438 6.160156 -0.390625 5.703125 -0.203125 C 5.253906 -0.0234375 4.769531 0.0625 4.25 0.0625 Z M 4.25 0.0625 "/></g></g></g><g fill="#4d4d4d" fill-opacity="1"><g transform="translate(12.657029, 40.303084)"><g><path d="M 5.609375 -1.90625 L 1.65625 -1.90625 L 0.796875 0 L 0.015625 0 L 3.265625 -7.109375 L 4.015625 -7.109375 L 7.265625 0 L 6.46875 0 Z M 5.34375 -2.515625 L 3.640625 -6.328125 L 1.921875 -2.515625 Z M 5.34375 -2.515625 "/></g></g></g><g fill="#4d4d4d" fill-opacity="1"><g transform="translate(19.939859, 40.303084)"><g><path d="M 6.015625 0 L 4.390625 -2.28125 C 4.203125 -2.257812 4.007812 -2.25 3.8125 -2.25 L 1.90625 -2.25 L 1.90625 0 L 1.15625 0 L 1.15625 -7.109375 L 3.8125 -7.109375 C 4.71875 -7.109375 5.425781 -6.890625 5.9375 -6.453125 C 6.457031 -6.023438 6.71875 -5.429688 6.71875 -4.671875 C 6.71875 -4.117188 6.578125 -3.648438 6.296875 -3.265625 C 6.015625 -2.878906 5.613281 -2.601562 5.09375 -2.4375 L 6.828125 0 Z M 3.796875 -2.890625 C 4.503906 -2.890625 5.039062 -3.046875 5.40625 -3.359375 C 5.78125 -3.671875 5.96875 -4.109375 5.96875 -4.671875 C 5.96875 -5.242188 5.78125 -5.679688 5.40625 -5.984375 C 5.039062 -6.296875 4.503906 -6.453125 3.796875 -6.453125 L 1.90625 -6.453125 L 1.90625 -2.890625 Z M 3.796875 -2.890625 "/></g></g></g><g fill="#4d4d4d" fill-opacity="1"><g transform="translate(27.283625, 40.303084)"><g><path d="M 6.1875 -0.65625 L 6.1875 0 L 1.15625 0 L 1.15625 -7.109375 L 6.03125 -7.109375 L 6.03125 -6.453125 L 1.90625 -6.453125 L 1.90625 -3.9375 L 5.578125 -3.9375 L 5.578125 -3.296875 L 1.90625 -3.296875 L 1.90625 -0.65625 Z M 6.1875 -0.65625 "/></g></g></g><g fill="#4d4d4d" fill-opacity="1"><g transform="translate(34.078903, 40.303084)"><g><path d="M 6.1875 -0.65625 L 6.1875 0 L 1.15625 0 L 1.15625 -7.109375 L 6.03125 -7.109375 L 6.03125 -6.453125 L 1.90625 -6.453125 L 1.90625 -3.9375 L 5.578125 -3.9375 L 5.578125 -3.296875 L 1.90625 -3.296875 L 1.90625 -0.65625 Z M 6.1875 -0.65625 "/></g></g></g><g fill="#4d4d4d" fill-opacity="1"><g transform="translate(40.87418, 40.303084)"><g><path d="M 6.015625 0 L 4.390625 -2.28125 C 4.203125 -2.257812 4.007812 -2.25 3.8125 -2.25 L 1.90625 -2.25 L 1.90625 0 L 1.15625 0 L 1.15625 -7.109375 L 3.8125 -7.109375 C 4.71875 -7.109375 5.425781 -6.890625 5.9375 -6.453125 C 6.457031 -6.023438 6.71875 -5.429688 6.71875 -4.671875 C 6.71875 -4.117188 6.578125 -3.648438 6.296875 -3.265625 C 6.015625 -2.878906 5.613281 -2.601562 5.09375 -2.4375 L 6.828125 0 Z M 3.796875 -2.890625 C 4.503906 -2.890625 5.039062 -3.046875 5.40625 -3.359375 C 5.78125 -3.671875 5.96875 -4.109375 5.96875 -4.671875 C 5.96875 -5.242188 5.78125 -5.679688 5.40625 -5.984375 C 5.039062 -6.296875 4.503906 -6.453125 3.796875 -6.453125 L 1.90625 -6.453125 L 1.90625 -2.890625 Z M 3.796875 -2.890625 "/></g></g></g><g fill="#4d4d4d" fill-opacity="1"><g transform="translate(48.217946, 40.303084)"><g/></g></g><g fill="#4d4d4d" fill-opacity="1"><g transform="translate(50.879179, 40.303084)"><g><path d="M 3.125 0.0625 C 2.59375 0.0625 2.082031 -0.0195312 1.59375 -0.1875 C 1.113281 -0.363281 0.742188 -0.585938 0.484375 -0.859375 L 0.765625 -1.4375 C 1.023438 -1.1875 1.367188 -0.976562 1.796875 -0.8125 C 2.222656 -0.65625 2.664062 -0.578125 3.125 -0.578125 C 3.757812 -0.578125 4.234375 -0.691406 4.546875 -0.921875 C 4.867188 -1.160156 5.03125 -1.46875 5.03125 -1.84375 C 5.03125 -2.125 4.941406 -2.347656 4.765625 -2.515625 C 4.597656 -2.679688 4.382812 -2.8125 4.125 -2.90625 C 3.875 -3 3.53125 -3.097656 3.09375 -3.203125 C 2.550781 -3.335938 2.117188 -3.46875 1.796875 -3.59375 C 1.484375 -3.71875 1.210938 -3.910156 0.984375 -4.171875 C 0.765625 -4.429688 0.65625 -4.78125 0.65625 -5.21875 C 0.65625 -5.582031 0.75 -5.910156 0.9375 -6.203125 C 1.125 -6.492188 1.410156 -6.726562 1.796875 -6.90625 C 2.191406 -7.082031 2.679688 -7.171875 3.265625 -7.171875 C 3.671875 -7.171875 4.066406 -7.113281 4.453125 -7 C 4.847656 -6.882812 5.1875 -6.734375 5.46875 -6.546875 L 5.21875 -5.9375 C 4.914062 -6.132812 4.59375 -6.28125 4.25 -6.375 C 3.914062 -6.476562 3.585938 -6.53125 3.265625 -6.53125 C 2.640625 -6.53125 2.171875 -6.410156 1.859375 -6.171875 C 1.546875 -5.929688 1.390625 -5.617188 1.390625 -5.234375 C 1.390625 -4.953125 1.472656 -4.722656 1.640625 -4.546875 C 1.816406 -4.378906 2.035156 -4.25 2.296875 -4.15625 C 2.554688 -4.0625 2.90625 -3.960938 3.34375 -3.859375 C 3.875 -3.734375 4.296875 -3.609375 4.609375 -3.484375 C 4.929688 -3.359375 5.203125 -3.164062 5.421875 -2.90625 C 5.648438 -2.65625 5.765625 -2.3125 5.765625 -1.875 C 5.765625 -1.519531 5.664062 -1.191406 5.46875 -0.890625 C 5.28125 -0.597656 4.984375 -0.363281 4.578125 -0.1875 C 4.179688 -0.0195312 3.695312 0.0625 3.125 0.0625 Z M 3.125 0.0625 "/></g></g></g><g fill="#4d4d4d" fill-opacity="1"><g transform="translate(57.125954, 40.303084)"><g><path d="M 6.1875 -0.65625 L 6.1875 0 L 1.15625 0 L 1.15625 -7.109375 L 6.03125 -7.109375 L 6.03125 -6.453125 L 1.90625 -6.453125 L 1.90625 -3.9375 L 5.578125 -3.9375 L 5.578125 -3.296875 L 1.90625 -3.296875 L 1.90625 -0.65625 Z M 6.1875 -0.65625 "/></g></g></g><g fill="#4d4d4d" fill-opacity="1"><g transform="translate(63.921231, 40.303084)"><g><path d="M 6.015625 0 L 4.390625 -2.28125 C 4.203125 -2.257812 4.007812 -2.25 3.8125 -2.25 L 1.90625 -2.25 L 1.90625 0 L 1.15625 0 L 1.15625 -7.109375 L 3.8125 -7.109375 C 4.71875 -7.109375 5.425781 -6.890625 5.9375 -6.453125 C 6.457031 -6.023438 6.71875 -5.429688 6.71875 -4.671875 C 6.71875 -4.117188 6.578125 -3.648438 6.296875 -3.265625 C 6.015625 -2.878906 5.613281 -2.601562 5.09375 -2.4375 L 6.828125 0 Z M 3.796875 -2.890625 C 4.503906 -2.890625 5.039062 -3.046875 5.40625 -3.359375 C 5.78125 -3.671875 5.96875 -4.109375 5.96875 -4.671875 C 5.96875 -5.242188 5.78125 -5.679688 5.40625 -5.984375 C 5.039062 -6.296875 4.503906 -6.453125 3.796875 -6.453125 L 1.90625 -6.453125 L 1.90625 -2.890625 Z M 3.796875 -2.890625 "/></g></g></g><g fill="#4d4d4d" fill-opacity="1"><g transform="translate(71.264997, 40.303084)"><g><path d="M 7.0625 -7.109375 L 3.921875 0 L 3.171875 0 L 0.03125 -7.109375 L 0.84375 -7.109375 L 3.5625 -0.9375 L 6.3125 -7.109375 Z M 7.0625 -7.109375 "/></g></g></g><g fill="#4d4d4d" fill-opacity="1"><g transform="translate(78.354829, 40.303084)"><g><path d="M 1.15625 -7.109375 L 1.90625 -7.109375 L 1.90625 0 L 1.15625 0 Z M 1.15625 -7.109375 "/></g></g></g><g fill="#4d4d4d" fill-opacity="1"><g transform="translate(81.422349, 40.303084)"><g><path d="M 4.25 0.0625 C 3.539062 0.0625 2.90625 -0.09375 2.34375 -0.40625 C 1.78125 -0.71875 1.335938 -1.148438 1.015625 -1.703125 C 0.691406 -2.253906 0.53125 -2.867188 0.53125 -3.546875 C 0.53125 -4.234375 0.691406 -4.851562 1.015625 -5.40625 C 1.335938 -5.957031 1.78125 -6.390625 2.34375 -6.703125 C 2.914062 -7.015625 3.550781 -7.171875 4.25 -7.171875 C 4.78125 -7.171875 5.269531 -7.082031 5.71875 -6.90625 C 6.164062 -6.726562 6.546875 -6.472656 6.859375 -6.140625 L 6.375 -5.65625 C 5.820312 -6.21875 5.125 -6.5 4.28125 -6.5 C 3.71875 -6.5 3.203125 -6.367188 2.734375 -6.109375 C 2.273438 -5.859375 1.914062 -5.507812 1.65625 -5.0625 C 1.394531 -4.613281 1.265625 -4.109375 1.265625 -3.546875 C 1.265625 -2.992188 1.394531 -2.492188 1.65625 -2.046875 C 1.914062 -1.597656 2.273438 -1.242188 2.734375 -0.984375 C 3.203125 -0.734375 3.71875 -0.609375 4.28125 -0.609375 C 5.132812 -0.609375 5.832031 -0.894531 6.375 -1.46875 L 6.859375 -0.984375 C 6.546875 -0.648438 6.160156 -0.390625 5.703125 -0.203125 C 5.253906 -0.0234375 4.769531 0.0625 4.25 0.0625 Z M 4.25 0.0625 "/></g></g></g><g fill="#4d4d4d" fill-opacity="1"><g transform="translate(88.725496, 40.303084)"><g><path d="M 6.1875 -0.65625 L 6.1875 0 L 1.15625 0 L 1.15625 -7.109375 L 6.03125 -7.109375 L 6.03125 -6.453125 L 1.90625 -6.453125 L 1.90625 -3.9375 L 5.578125 -3.9375 L 5.578125 -3.296875 L 1.90625 -3.296875 L 1.90625 -0.65625 Z M 6.1875 -0.65625 "/></g></g></g><g fill="#4d4d4d" fill-opacity="1"><g transform="translate(95.520773, 40.303084)"><g><path d="M 3.125 0.0625 C 2.59375 0.0625 2.082031 -0.0195312 1.59375 -0.1875 C 1.113281 -0.363281 0.742188 -0.585938 0.484375 -0.859375 L 0.765625 -1.4375 C 1.023438 -1.1875 1.367188 -0.976562 1.796875 -0.8125 C 2.222656 -0.65625 2.664062 -0.578125 3.125 -0.578125 C 3.757812 -0.578125 4.234375 -0.691406 4.546875 -0.921875 C 4.867188 -1.160156 5.03125 -1.46875 5.03125 -1.84375 C 5.03125 -2.125 4.941406 -2.347656 4.765625 -2.515625 C 4.597656 -2.679688 4.382812 -2.8125 4.125 -2.90625 C 3.875 -3 3.53125 -3.097656 3.09375 -3.203125 C 2.550781 -3.335938 2.117188 -3.46875 1.796875 -3.59375 C 1.484375 -3.71875 1.210938 -3.910156 0.984375 -4.171875 C 0.765625 -4.429688 0.65625 -4.78125 0.65625 -5.21875 C 0.65625 -5.582031 0.75 -5.910156 0.9375 -6.203125 C 1.125 -6.492188 1.410156 -6.726562 1.796875 -6.90625 C 2.191406 -7.082031 2.679688 -7.171875 3.265625 -7.171875 C 3.671875 -7.171875 4.066406 -7.113281 4.453125 -7 C 4.847656 -6.882812 5.1875 -6.734375 5.46875 -6.546875 L 5.21875 -5.9375 C 4.914062 -6.132812 4.59375 -6.28125 4.25 -6.375 C 3.914062 -6.476562 3.585938 -6.53125 3.265625 -6.53125 C 2.640625 -6.53125 2.171875 -6.410156 1.859375 -6.171875 C 1.546875 -5.929688 1.390625 -5.617188 1.390625 -5.234375 C 1.390625 -4.953125 1.472656 -4.722656 1.640625 -4.546875 C 1.816406 -4.378906 2.035156 -4.25 2.296875 -4.15625 C 2.554688 -4.0625 2.90625 -3.960938 3.34375 -3.859375 C 3.875 -3.734375 4.296875 -3.609375 4.609375 -3.484375 C 4.929688 -3.359375 5.203125 -3.164062 5.421875 -2.90625 C 5.648438 -2.65625 5.765625 -2.3125 5.765625 -1.875 C 5.765625 -1.519531 5.664062 -1.191406 5.46875 -0.890625 C 5.28125 -0.597656 4.984375 -0.363281 4.578125 -0.1875 C 4.179688 -0.0195312 3.695312 0.0625 3.125 0.0625 Z M 3.125 0.0625 "/></g></g></g></svg>